<svg width="280" height="50" viewBox="0 0 280 50" fill="none" xmlns="http://www.w3.org/2000/svg">
<path fill-rule="evenodd" clip-rule="evenodd" d="M14.2984 0.297106C12.0723 0.829753 11.2937 1.05007 10.8827 1.26368C10.6452 1.38726 10.2752 1.48822 10.0609 1.48822C9.84626 1.48822 9.01172 1.93583 8.20604 2.48289C7.40036 3.02996 6.63694 3.47757 6.50913 3.47757C6.38131 3.47757 5.56394 4.23775 4.69261 5.16652C3.14938 6.81195 1.49201 9.63906 1.49201 10.6263C1.49201 10.8886 1.40821 11.1865 1.30551 11.2882C0.857655 11.7318 0.6249 15.0608 0.912857 16.9056C1.39279 19.9814 1.56785 20.4549 3.05215 22.6921C3.98813 24.1031 6.53126 26.4256 7.88799 27.1082C8.26796 27.2997 8.87595 27.656 9.239 27.9002C9.60206 28.1444 10.127 28.3444 10.4055 28.3444C10.684 28.3444 10.9695 28.4371 11.0394 28.5505C11.2796 28.9392 16.281 29.8381 18.1677 29.8319C19.9228 29.8259 23.4944 29.1913 24.4468 28.7161C24.8566 28.5117 25.3475 28.3444 25.5379 28.3444C26.131 28.3444 29.4855 25.936 30.4312 24.8312C31.406 23.6925 31.5786 22.725 31.0335 21.4555C30.5493 20.328 29.8324 19.3923 29.453 19.3923C29.2585 19.3923 28.2273 20.2594 27.1612 21.3195C25.9348 22.539 24.6427 23.5433 23.6423 24.0548C22.1377 24.824 21.9278 24.863 19.2834 24.863C17.0144 24.863 16.3168 24.772 15.4761 24.3657C14.9099 24.0921 14.3454 23.8683 14.2216 23.8683C14.0977 23.8683 13.4427 23.3148 12.7664 22.6382C11.6058 21.4779 10.8688 20.1699 10.2265 18.1313C9.87957 17.0305 9.85545 12.5154 10.1954 12.3053C10.3321 12.2207 10.444 11.9216 10.444 11.6406C10.444 10.2234 13.4306 6.6727 15.314 5.85036C15.8496 5.61636 16.4867 5.3197 16.7299 5.19089C16.9731 5.06208 18.0548 4.95067 19.1337 4.94371C21.2897 4.92954 22.0909 5.25629 22.5905 6.35242C22.8996 7.03078 22.9876 9.99863 22.7071 10.2791C22.4311 10.5552 21.8905 12.2583 21.8865 12.8648C21.8798 13.8679 23.1348 13.6707 24.6141 12.4358C25.2318 11.9203 26.0825 11.2885 26.5048 11.0316C28.9663 9.53412 30.8348 7.67408 30.8348 6.72094C30.8348 5.19089 29.3662 3.57355 26.6075 2.06538C25.5404 1.48201 23.4946 0.885204 20.434 0.264778C18.8627 -0.0537655 15.6952 -0.0371035 14.2984 0.297106ZM80.3197 0.233444C80.1146 0.372201 79.6749 0.487584 79.3427 0.489822C78.5674 0.494547 77.2057 0.921259 75.0977 1.8197C73.4018 2.54257 68.6323 6.81593 68.6323 7.61242C68.6323 7.80016 68.5341 7.95359 68.4137 7.95359C68.2936 7.95359 68.0587 8.31739 67.8913 8.76176C67.4982 9.80741 67.2669 10.4037 66.9227 11.2601C66.5654 12.1489 66.5582 17.3115 66.9128 18.4228C67.9231 21.5893 69.901 24.3231 72.7423 26.4793C73.7919 27.2761 74.0724 27.4404 76.2167 28.5162C76.7513 28.7845 78.2966 29.1475 80.7076 29.5715C82.6052 29.905 85.8086 29.9132 87.0671 29.5877C87.5957 29.4509 88.5041 29.2187 89.0853 29.0717C90.4572 28.7246 92.5044 27.8157 92.5044 27.5541C92.5044 27.4417 92.6897 27.3497 92.9162 27.3497C93.7664 27.3497 97.3296 24.0528 98.134 22.5218C100.066 18.845 100.285 18.0696 100.285 14.9163C100.285 12.0029 100.028 10.9125 98.6537 8.01575C98.5078 7.7079 98.2954 7.45625 98.1818 7.45625C98.0681 7.45625 97.9751 7.30954 97.9751 7.13025C97.9751 6.95071 97.7777 6.58716 97.5362 6.32208C97.2948 6.05675 96.6659 5.30851 96.1387 4.65874C95.6113 4.00897 95.0391 3.47757 94.8673 3.47757C94.6955 3.47757 94.4199 3.31519 94.2551 3.1165C93.8639 2.64528 91.5356 1.48822 90.9784 1.48822C90.7396 1.48822 90.483 1.38876 90.4077 1.26691C90.3326 1.14531 89.9063 0.983676 89.4605 0.907833C89.0149 0.831989 88.0906 0.640763 87.4067 0.483357C85.6999 0.089964 80.7875 -0.0833587 80.3197 0.233444ZM244.938 0.343109C243.775 0.494299 242.684 0.708402 242.513 0.81906C242.142 1.05927 242.099 2.14073 242.451 2.35856C242.588 2.44311 242.7 3.17046 242.7 3.9749C242.7 4.77934 242.588 5.5067 242.451 5.59124C242.314 5.67579 242.202 5.94485 242.202 6.18929C242.202 6.43373 242.047 6.95867 241.857 7.35579C241.506 8.08811 240.823 9.65796 240.461 10.5646C240.352 10.8381 240.028 11.5923 239.741 12.2404C239.453 12.8886 239.218 13.5111 239.218 13.6235C239.218 13.7361 238.995 14.2914 238.721 14.8576C238.448 15.4238 238.221 16.0323 238.218 16.2099C238.215 16.3874 237.994 16.8124 237.726 17.1543C237.459 17.4962 237.238 17.8986 237.235 18.0485C237.232 18.1985 237.05 18.6801 236.831 19.1188C236.46 19.8628 236.411 19.8864 236.093 19.4679C235.906 19.2212 235.749 18.8796 235.745 18.7085C235.741 18.5376 235.625 18.3976 235.488 18.3976C235.352 18.3976 235.24 18.1773 235.24 17.9078C235.24 17.6385 235.016 17.0195 234.742 16.5326C234.469 16.0457 234.245 15.5375 234.245 15.4034C234.245 15.2691 234.01 14.6293 233.723 13.981C233.436 13.333 233.114 12.5788 233.008 12.3053C232.903 12.0317 232.589 11.3044 232.311 10.6889C231.633 9.18773 231.073 7.69099 230.391 5.55618C229.903 4.02737 229.863 3.63423 230.104 2.73206C230.373 1.72172 230.356 1.66229 229.641 1.08986C228.905 0.501508 228.845 0.49604 223.002 0.494797C217.432 0.493553 217.09 0.520158 216.848 0.972982C216.467 1.68417 216.745 2.12233 218.145 3.02052C218.839 3.46613 219.656 4.07984 219.961 4.38471C220.599 5.02304 224.221 12.3456 225.047 14.6676C225.628 16.3034 225.912 16.9056 226.1 16.9056C226.203 16.9056 226.29 17.2135 226.293 17.5895C226.296 17.9655 226.518 18.5531 226.785 18.895C227.053 19.2369 227.274 19.7141 227.277 19.9553C227.28 20.1965 227.394 20.616 227.531 20.8878C227.668 21.1593 227.892 21.604 228.028 21.8755C228.165 22.1473 228.277 22.5178 228.277 22.6993C228.277 22.8806 228.501 23.4921 228.774 24.0583C229.048 24.6245 229.272 25.2064 229.272 25.3516C229.272 25.4969 229.374 25.8102 229.5 26.0477C229.625 26.2851 229.861 26.8399 230.024 27.2808C230.188 27.7214 230.583 28.365 230.904 28.7106C231.476 29.3283 231.549 29.339 235.18 29.339C237.757 29.339 238.995 29.245 239.274 29.0282C239.903 28.5381 240.708 27.0371 240.709 26.355C240.709 26.0131 240.952 25.2298 241.248 24.6143C242.553 21.9056 242.7 21.5657 242.7 21.2573C242.7 21.078 242.91 20.5011 243.168 19.9754C243.722 18.843 244.673 16.7363 244.946 16.0353C245.052 15.7618 245.604 14.3071 246.171 12.8026C246.739 11.2982 247.421 9.61966 247.688 9.07259C247.954 8.52552 248.172 7.93817 248.171 7.76709C248.171 7.59625 248.27 7.45625 248.391 7.45625C248.512 7.45625 248.803 7.05316 249.036 6.5603C249.627 5.31547 250.954 3.90702 252.424 2.96332C253.53 2.25387 253.659 2.07956 253.592 1.39174L253.517 0.617886L251.279 0.326198C248.612 -0.0216888 247.724 -0.0192 244.938 0.343109ZM262.718 0.244884C262.633 0.381651 262.241 0.493552 261.847 0.493552C261.453 0.493552 261.061 0.605453 260.977 0.74222C260.892 0.878987 260.595 0.990888 260.316 0.990888C260.037 0.990888 258.865 1.45217 257.711 2.01615C255.133 3.2754 254.298 4.31309 254.032 6.58591C253.691 9.49757 253.944 11.1756 254.952 12.6783C255.939 14.1491 257.138 15.4136 257.548 15.4136C257.728 15.4136 258.07 15.5116 258.307 15.6312C260.239 16.6045 260.964 16.9056 261.377 16.9056C261.838 16.9056 262.081 16.9964 263.274 17.6128C263.579 17.771 264.056 17.9003 264.333 17.9003C264.78 17.9003 265.964 18.3559 267.788 19.2292C268.115 19.3858 268.759 19.8583 269.218 20.2791C269.932 20.9326 270.053 21.2088 270.053 22.1771C270.053 23.3854 269.952 23.5252 268.492 24.3391C267.773 24.7394 267.119 24.863 265.717 24.863C263.571 24.863 262.178 24.265 261.13 22.8926C260.552 22.1369 260.48 21.8161 260.48 20.0329C260.48 18.9283 260.389 17.8849 260.278 17.7138C259.843 17.0414 258.342 17.5027 256.338 18.9241C255.975 19.1817 255.528 19.3948 255.344 19.3978C255.16 19.4008 254.729 19.6221 254.387 19.8896C254.045 20.1572 253.645 20.3785 253.498 20.3815C252.969 20.3925 252.149 21.547 252.149 22.2806C252.149 23.0736 252.649 24.3604 252.957 24.3637C253.06 24.3647 253.144 24.5129 253.144 24.6929C253.144 25.0515 255.343 27.3497 255.687 27.3497C255.804 27.3497 256.126 27.5601 256.402 27.8169C257.347 28.6977 262.105 29.8456 264.722 29.8244C267.201 29.804 272.169 28.9916 272.434 28.5634C272.508 28.4428 272.814 28.3419 273.114 28.3389C273.414 28.3359 273.939 28.1146 274.281 27.847C274.623 27.5795 275.026 27.3581 275.178 27.3552C275.682 27.3452 277.963 24.8478 278.488 23.7313C278.877 22.9037 279.005 22.1378 279.005 20.6458C279.005 18.4566 278.536 17.2431 277.304 16.2474C276.94 15.9537 276.318 15.432 275.921 15.0881C275.524 14.744 274.909 14.317 274.554 14.1389C274.198 13.9609 273.611 13.6153 273.248 13.3711C272.885 13.1269 272.407 12.9269 272.187 12.9269C271.967 12.9269 271.593 12.8287 271.355 12.7089C270.637 12.3458 269.18 11.9323 268.62 11.9323C268.331 11.9323 268.024 11.8204 267.94 11.6836C267.855 11.5468 267.572 11.4349 267.311 11.4349C266.876 11.4349 265.999 11.0182 264.617 10.155C264.324 9.97252 264.085 9.63309 264.085 9.40034C264.085 9.16783 263.973 8.90847 263.837 8.82393C263.7 8.73938 263.588 8.20126 263.589 7.62808C263.591 4.83877 266.174 3.77348 269.264 5.28737C270.127 5.7106 270.576 6.97334 270.245 8.04957C270.026 8.76474 270.054 9.03653 270.4 9.56545C270.773 10.1337 270.932 10.1894 271.743 10.0372C272.25 9.94218 273.031 9.6582 273.48 9.4063C273.929 9.1544 274.569 8.94826 274.903 8.94826C275.79 8.94826 277.603 7.85313 277.852 7.16705C278.144 6.36087 277.299 4.60528 275.94 3.19807C274.621 1.83089 273.475 1.25323 271.048 0.731527C270.296 0.569893 269.423 0.338133 269.109 0.216783C268.319 -0.0883324 262.909 -0.0644586 262.718 0.244884ZM33.1332 0.78126C32.5248 1.38975 32.8035 2.16957 34.0227 3.26794C35.7885 4.85916 36.1503 5.54922 36.408 7.81806C36.8764 11.9435 36.5952 23.6599 36.019 24.016C35.9029 24.0877 35.8082 24.3545 35.8082 24.6089C35.8082 24.8635 35.2487 25.6839 34.5648 26.4321C33.881 27.1803 33.3215 27.9783 33.3215 28.2053C33.3215 28.4473 33.7059 28.779 34.249 29.0061C35.6709 29.6001 46.852 29.4062 47.8218 28.7708C48.1893 28.5299 48.4902 28.216 48.4902 28.0733C48.4902 27.8174 47.5092 26.4117 46.7147 25.5297C46.4904 25.2805 46.1761 24.5532 46.0162 23.9131C45.8563 23.273 45.6203 22.3447 45.4915 21.8501C45.3627 21.3555 45.2575 20.4884 45.2575 19.923C45.2575 18.9944 45.3172 18.895 45.874 18.895C46.6232 18.895 49.2539 21.4816 51.092 24.0255C51.7709 24.9647 52.4142 25.7706 52.5219 25.8161C52.6296 25.8619 52.7176 26.3973 52.7176 27.0063C52.7176 27.615 52.8984 28.3891 53.1192 28.7261L53.5208 29.339H59.2973C64.5778 29.339 65.1092 29.3 65.4854 28.8842C66.268 28.0196 66.0701 27.6821 63.9019 26.1854C63.2897 25.7627 62.4519 25.0406 62.0404 24.5805C61.6289 24.1205 60.2975 22.625 59.0817 21.2573C57.866 19.8896 56.7102 18.6391 56.5132 18.4787C56.0833 18.1278 56.1798 17.4124 56.6963 17.1227C60.0861 15.2216 61.1149 14.4413 62.115 13.013C62.4171 12.5815 62.6643 11.9447 62.6643 11.5978C62.6643 11.2509 62.7762 10.8978 62.913 10.8133C63.2482 10.6061 63.228 8.8187 62.8782 7.72257C62.3085 5.93714 62.1021 5.46691 61.8882 5.46691C61.7679 5.46691 61.6696 5.32194 61.6696 5.14488C61.6696 4.47497 57.0583 1.48822 56.0236 1.48822C55.7645 1.48822 55.4462 1.38726 55.3162 1.26368C54.8554 0.825524 52.4801 0.694229 43.0178 0.58382C35.5948 0.497284 33.373 0.541544 33.1332 0.78126ZM102.12 0.659415C101.625 1.15402 102.077 1.99725 103.634 3.48677C104.964 4.75845 105.541 5.5609 106.397 7.33192C106.993 8.56282 107.691 10.0001 107.949 10.5261C108.208 11.0517 108.419 11.7445 108.419 12.0653C108.419 12.3863 108.531 12.7181 108.668 12.8026C108.805 12.8872 108.917 13.2229 108.917 13.5486C108.917 13.8744 109.028 14.2101 109.165 14.2946C109.302 14.3792 109.414 14.8387 109.414 15.3159C109.414 15.7931 109.638 16.6468 109.911 17.213C110.185 17.7792 110.409 18.4417 110.409 18.6854C110.409 18.929 110.632 19.5271 110.906 20.014C111.179 20.5009 111.403 21.1133 111.403 21.3744C111.403 21.6358 111.515 21.9188 111.652 22.0033C111.789 22.0879 111.901 22.3942 111.901 22.6842C111.901 23.2442 112.314 24.7006 112.677 25.419C112.797 25.6565 112.895 26.0096 112.895 26.2038C112.895 26.8951 114.019 28.647 114.683 28.9901C115.5 29.4131 121.757 29.4828 122.644 29.0787C123.434 28.7181 123.837 27.7371 123.837 26.169C123.837 25.3479 124.027 24.4452 124.334 23.8096C124.607 23.2434 124.831 22.5494 124.831 22.2674C124.83 21.9854 125.049 21.3071 125.317 20.76C125.584 20.2129 125.948 19.4018 126.124 18.9571C126.3 18.5125 126.509 18.149 126.588 18.149C126.876 18.149 128.122 21.3715 129.04 24.49C129.161 24.9003 129.405 25.9999 129.582 26.9337C130.021 29.2522 130.216 29.339 134.971 29.339C138.516 29.339 138.693 29.3152 139.211 28.7636C139.508 28.4471 139.751 28.0027 139.751 27.7764C139.751 27.5501 139.975 26.9662 140.249 26.4793C140.522 25.9925 140.746 25.3862 140.746 25.1326C140.746 24.8787 140.913 24.3507 141.118 23.9588C141.322 23.5672 141.554 22.855 141.633 22.3763C141.712 21.8976 141.865 21.2822 141.974 21.0086C142.083 20.7351 142.283 20.2316 142.419 19.8896C142.555 19.5477 142.801 18.8204 142.966 18.2733C143.131 17.7262 143.356 17.0548 143.467 16.7813C143.578 16.5078 143.794 15.9709 143.948 15.5884C144.102 15.206 144.227 14.6778 144.227 14.4147C144.227 14.1519 144.451 13.5382 144.725 13.0513C144.998 12.5644 145.222 11.9489 145.222 11.6836C145.222 11.4183 145.446 10.8028 145.719 10.3159C145.993 9.82904 146.217 9.26954 146.217 9.07259C146.217 8.87565 146.44 8.31614 146.714 7.82925C146.988 7.34236 147.211 6.73263 147.211 6.47476C147.211 6.21664 147.302 5.96847 147.412 5.92272C147.523 5.87721 147.974 5.31149 148.414 4.6657C149.138 3.60439 151.075 1.98556 151.622 1.98556C152.086 1.98556 155.169 4.75622 155.169 5.17398C155.169 5.41718 155.309 5.75586 155.48 5.92695C155.717 6.16393 155.79 8.3425 155.788 15.1152C155.786 23.9922 155.786 23.9927 155.2 24.9873C154.878 25.5344 154.171 26.4642 153.63 27.0533C152.625 28.1467 152.613 28.4587 153.552 29.1488C153.911 29.4121 167.819 29.3728 170.403 29.1008C172.739 28.8551 173.861 28.5696 175.435 27.8214C175.982 27.561 176.604 27.3487 176.816 27.3489C177.029 27.3494 177.732 27.014 178.379 26.6037C179.026 26.1934 179.62 25.8577 179.698 25.8577C179.875 25.8577 181.727 24.4134 182.407 23.7447C183.135 23.0288 184.315 21.2071 184.984 19.7653C185.301 19.0815 185.66 18.3278 185.782 18.0903C186.064 17.5402 186.073 12.068 185.793 11.4936C184.239 8.30868 183.73 7.47913 182.653 6.38002C181.07 4.76392 179.43 3.47757 178.952 3.47757C178.75 3.47757 178.548 3.3883 178.502 3.27938C178.4 3.03469 176.525 2.16187 175.187 1.7359C174.639 1.56183 173.968 1.32932 173.694 1.21916C172.562 0.763605 170.278 0.682292 156.117 0.592274L141.276 0.498029L140.753 1.16272C140.425 1.57998 140.299 1.97263 140.416 2.21732C140.682 2.77682 140.608 4.41529 140.26 5.71558C140.094 6.33103 139.901 7.25483 139.829 7.76858C139.758 8.28233 139.599 8.76449 139.476 8.84009C139.354 8.91568 139.254 9.24417 139.254 9.56993C139.254 9.89568 139.142 10.2314 139.005 10.3159C138.869 10.4005 138.757 10.6884 138.757 10.9558C138.757 11.2231 138.657 11.6361 138.535 11.8736C138.413 12.1111 138.065 12.8648 137.762 13.5486C137.459 14.2325 137.11 14.9862 136.989 15.2236C136.867 15.4611 136.767 15.8585 136.767 16.1064C136.767 16.3546 136.666 16.6639 136.543 16.7937C136.419 16.9238 136.274 17.2538 136.221 17.5273C136.14 17.9369 136.053 17.871 135.728 17.1543C135.511 16.6756 135.197 15.8923 135.031 15.4136C134.864 14.9349 134.627 14.2916 134.504 13.9838C134.381 13.6759 134.184 13.1726 134.065 12.8648C133.947 12.5569 133.736 12.0255 133.596 11.6836C133.457 11.3417 133.198 10.5584 133.022 9.94293C132.846 9.32748 132.61 8.71774 132.497 8.58769C132.384 8.45789 132.281 8.06623 132.269 7.71735C132.225 6.4867 131.004 4.67714 129.803 4.06318C127.531 2.9014 124.639 3.44947 123.708 5.21824C122.89 6.77092 122.345 8.25721 122.345 8.93085C122.345 9.33469 122.233 9.73405 122.096 9.8186C121.959 9.90314 121.847 10.2095 121.847 10.4995C121.847 11.1152 121.461 12.3714 120.814 13.8567C120.562 14.4366 120.355 15.0255 120.355 15.1657C120.355 15.3057 120.255 15.6148 120.133 15.8523C120.011 16.0898 119.778 16.6187 119.614 17.0275C119.325 17.7499 119.307 17.7571 118.955 17.2761C118.756 17.0041 118.526 16.5015 118.444 16.1596C118.362 15.8177 118.075 15.0344 117.808 14.419C117.541 13.8035 117.221 13.0483 117.098 12.7404C116.975 12.4326 116.771 11.9293 116.646 11.6214C116.521 11.3136 116.346 10.7822 116.258 10.4403C116.17 10.0983 115.865 8.97934 115.579 7.95359C114.961 5.73124 114.723 3.0424 115.111 2.65448C115.561 2.20464 115.432 1.0349 114.901 0.750924C114.37 0.466697 102.398 0.380907 102.12 0.659415ZM187.661 0.659415C187.227 1.09434 187.541 2.18424 188.304 2.88748C189.49 3.98112 189.895 4.5543 190.235 5.62581C190.403 6.15398 190.639 6.78012 190.759 7.0176C191.07 7.63355 191.041 23.0534 190.728 23.2467C190.591 23.3312 190.48 23.6562 190.48 23.969C190.48 24.3008 189.858 25.2778 188.988 26.3147C188.167 27.292 187.496 28.2379 187.496 28.417C187.496 29.3189 187.803 29.339 201.556 29.339C214.285 29.339 215.043 29.3142 215.432 28.8842C216.071 28.1782 216.036 21.9228 215.388 21.123C214.824 20.426 214.052 20.5707 212.984 21.5739C211.579 22.8941 210.002 23.7786 208.508 24.0842C207.687 24.2523 206.495 24.5037 205.859 24.6429C205.176 24.7929 203.723 24.8247 202.31 24.721L199.917 24.5455L199.985 20.4146L200.053 16.284L203.887 16.3374C206.122 16.3685 207.827 16.4981 207.977 16.6483C208.119 16.7898 208.404 16.9056 208.61 16.9056C208.817 16.9056 209.467 17.3769 210.053 17.9528C211.695 19.5641 211.824 19.2687 211.896 13.7306C211.959 8.90076 211.859 8.41909 210.897 8.93408C210.609 9.08826 210.373 9.32772 210.373 9.46623C210.373 9.8176 209.132 10.8675 208.384 11.1487C207.379 11.5267 203.162 11.9696 201.545 11.8669L200.053 11.7721L199.984 8.35245L199.915 4.93277L203.465 5.04741C208.604 5.21377 209.989 5.6002 211.602 7.3165C211.931 7.66687 212.301 7.95359 212.424 7.95359C212.546 7.95359 212.814 8.12144 213.02 8.32659C213.473 8.78041 214.203 8.81025 214.538 8.38876C214.674 8.21792 214.901 6.68215 215.043 4.97654C215.259 2.39661 215.242 1.75877 214.945 1.18435L214.588 0.493552H201.207C193.848 0.493552 187.752 0.568154 187.661 0.659415ZM81.5131 4.94545C79.9278 5.27369 76.5897 7.9056 76.5897 8.82741C76.5897 9.0343 76.491 9.3981 76.3701 9.63558C75.5871 11.1743 75.5269 11.5657 75.5294 15.0881C75.5319 18.7216 75.5421 18.7895 76.2968 20.2015C77.0853 21.6771 78.9501 23.8641 79.4277 23.8738C79.5765 23.8768 79.9778 24.0981 80.3197 24.3657C81.2323 25.0796 85.1411 25.0796 86.4121 24.3657C86.899 24.0921 87.409 23.8683 87.5453 23.8683C88.0665 23.8683 89.9355 21.6863 90.7053 20.1791C91.5088 18.6053 91.5098 18.5991 91.5098 14.7852C91.5098 12.5079 91.4093 10.905 91.2611 10.8133C91.1243 10.7287 91.01 10.4144 91.007 10.1148C91.004 9.81511 90.7827 9.29018 90.5151 8.94826C90.2475 8.60634 90.0262 8.20872 90.0232 8.06449C90.0138 7.61565 88.396 6.20545 87.1902 5.59497C85.9143 4.94918 83.0677 4.62343 81.5131 4.94545ZM45.2575 9.41675V13.9216H47.3677C49.4533 13.9216 51.7229 13.5061 51.7229 13.1241C51.7229 13.0157 51.885 12.9269 52.0832 12.9269C52.9185 12.9269 54.5426 9.67909 53.986 9.12258C53.8354 8.97188 53.7123 8.68591 53.7123 8.48673C53.7123 7.83671 52.5485 6.58019 51.4404 6.03387C50.3279 5.48531 49.5224 5.31572 46.8117 5.05884L45.2575 4.91163V9.41675ZM164.945 5.26051C164.579 5.71831 164.488 23.785 164.85 24.2209C165.04 24.4497 165.435 24.4811 166.295 24.3348C166.945 24.2242 167.981 24.0576 168.597 23.9648C169.212 23.8718 170.013 23.5883 170.376 23.3347C170.739 23.081 171.166 22.8737 171.326 22.8737C171.824 22.8737 173.898 21.3299 174.938 20.1858C175.485 19.5835 176.108 18.6003 176.323 18.0013C176.538 17.402 176.79 16.8358 176.883 16.7428C176.976 16.65 177.052 15.7185 177.052 14.6728C177.052 13.2805 176.918 12.4963 176.554 11.7423C176.281 11.1761 176.057 10.6019 176.057 10.4661C176.057 10.0824 172.84 6.95892 172.445 6.95892C172.251 6.95892 171.726 6.75327 171.277 6.50161C170.406 6.01298 169.699 5.80709 167.726 5.46691C167.043 5.34904 166.197 5.17995 165.846 5.09092C165.443 4.98897 165.112 5.05114 164.945 5.26051ZM3.97869 38.2209C0.719894 38.3032 0 38.5469 0 39.5677C0 40.3868 0.585363 40.7777 1.81229 40.7777H2.66249L2.82313 42.6803C2.91165 43.7267 2.98401 45.5755 2.98401 46.7885C2.98401 48.9002 3.01062 49.0067 3.60568 49.2777C4.07069 49.4896 4.38401 49.4896 4.84902 49.2777L5.47069 48.9945V44.886V40.7777H6.32934C7.96732 40.7777 8.94731 39.9621 8.55069 38.9286C8.39651 38.5271 7.3822 37.979 7.0087 38.0956C6.91496 38.1247 5.55151 38.1812 3.97869 38.2209ZM71.865 38.4756C71.2496 38.7056 70.2703 39.3792 69.6892 39.9728L68.6323 41.0515V43.8147C68.6323 46.3041 68.6933 46.6816 69.2463 47.6253C70.0905 49.0661 71.5395 49.7298 73.8399 49.7298C75.8626 49.7298 76.7396 49.3988 77.23 48.4504C77.6537 47.6308 77.694 45.394 77.3051 44.2785C76.955 43.2736 76.2893 43.0155 74.5859 43.2244C73.4172 43.3676 73.2138 43.4758 73.0066 44.0651C72.716 44.8922 73.3575 45.7511 74.2659 45.7511C74.676 45.7511 74.849 45.8933 74.849 46.2308C74.849 47.6382 72.9813 47.7544 71.8028 46.42C71.2078 45.7461 71.119 45.4378 71.119 44.0432C71.119 42.7251 71.2272 42.2991 71.7295 41.6404C72.4499 40.6962 73.2633 40.4798 74.3592 40.9406C75.6032 41.4636 76.2779 41.3653 76.6775 40.6024C77.0731 39.8475 76.8543 39.0734 76.1147 38.6113C75.2909 38.0969 73.0681 38.026 71.865 38.4756ZM98.7778 38.3008C98.467 38.4256 98.1512 38.7262 98.0759 38.9689C98.0005 39.2116 97.8351 39.6043 97.7083 39.8418C97.5815 40.0792 97.4778 40.4281 97.4778 40.6169C97.4778 40.8056 97.2649 41.5066 97.0046 42.1745C96.7442 42.8422 96.3479 44.0042 96.1236 44.7564C95.8993 45.5087 95.5181 46.5436 95.2766 47.0566C94.8685 47.9227 94.8031 47.963 94.3548 47.6241C94.0462 47.3906 93.2768 47.256 92.2212 47.2511L90.5706 47.2431L90.4134 46.4061C90.1321 44.9064 90.5464 44.4971 91.8462 44.9912C92.6405 45.2931 93.9184 44.833 94.0882 44.184C94.2844 43.4338 93.8226 42.5468 93.148 42.3774C92.8086 42.2921 92.12 42.358 91.6177 42.5239C90.5683 42.87 90.2152 42.5967 90.3264 41.5237C90.388 40.9294 90.4726 40.8988 92.2495 40.828C94.2086 40.7496 94.9911 40.3712 94.9911 39.5016C94.9911 38.5641 93.9992 38.2687 91.1077 38.3445C88.4969 38.4132 88.3969 38.4363 88.107 39.0428C87.9185 39.4367 87.7788 41.2895 87.731 44.0238C87.6291 49.8904 87.5269 49.7298 91.3608 49.7298C93.5856 49.7298 94.2508 49.6495 94.4985 49.3511C94.7793 49.0129 94.8785 49.0156 95.4298 49.3769C95.9554 49.7213 96.1375 49.7328 96.6592 49.4535C97.3428 49.0875 97.9751 48.0314 97.9751 47.2555C97.9751 46.8002 98.1293 46.7458 99.4172 46.7458H100.859L101.188 47.6783C101.88 49.6445 103.288 50.3323 104.096 49.0992C104.485 48.5053 104.481 48.4074 104.015 47.4207C103.36 46.0343 102.665 44.0651 102.506 43.1446C102.435 42.7365 102.17 42.0338 101.917 41.5827C101.664 41.1316 101.456 40.5502 101.456 40.2906C101.456 39.8035 99.9516 38.0302 99.5621 38.0581C99.4415 38.0668 99.0887 38.1759 98.7778 38.3008ZM235.861 38.214C233.853 38.7598 232.697 41.147 233.6 42.8862C233.903 43.4708 235.45 44.7564 235.851 44.7564C235.928 44.7564 236.5 44.9954 237.121 45.2873C238.087 45.7414 238.239 45.9127 238.175 46.4685C238.108 47.0444 237.976 47.1277 237.016 47.1966C236.391 47.2414 235.585 47.1098 235.113 46.8858C234.08 46.3954 233.636 46.3959 233.144 46.8878C232.609 47.4224 232.653 47.8568 233.313 48.5601C234.204 49.5105 234.842 49.7298 236.719 49.7298C238.583 49.7298 239.239 49.4918 240.148 48.4864C240.601 47.9854 240.71 47.5728 240.71 46.3593C240.71 44.9797 240.643 44.7917 239.902 44.1077C239.458 43.6971 238.479 43.0881 237.726 42.7542C235.857 41.9241 235.603 41.5633 236.353 40.8031L236.941 40.2071L238.08 40.7427C239.51 41.4148 240.276 41.1075 240.16 39.9077C240.104 39.3233 239.891 39.0691 239.172 38.732C238.144 38.2498 236.612 38.0101 235.861 38.214ZM258.863 38.2127C257.177 38.5032 255.488 39.7943 255.252 40.9729C255.177 41.3442 255.008 41.9917 254.876 42.4117C254.35 44.0833 254.692 46.2646 255.732 47.876C256.509 49.0803 257.981 49.7206 259.982 49.7251C262.076 49.7298 263.687 48.3261 264.329 45.9376C264.625 44.8375 264.61 44.3862 264.183 41.7379C263.839 39.6038 261.147 37.8193 258.863 38.2127ZM9.5951 38.8506C9.32082 39.2736 9.21314 40.4726 9.15421 43.7618C9.07264 48.3266 9.17758 49.0696 9.96362 49.4901C11.1058 50.1015 11.9361 48.7214 11.9361 46.2114V44.7564H13.0434C13.6524 44.7564 14.4357 44.8862 14.7841 45.0451C15.3823 45.3177 15.4174 45.439 15.4174 47.2334C15.4174 49.3098 15.6298 49.7298 16.6801 49.7298C17.9217 49.7298 17.9966 49.3831 17.9299 43.9366C17.8926 40.8891 17.7658 38.7971 17.6072 38.6059C17.2598 38.1874 16.4031 38.2197 15.8021 38.6743C15.4321 38.954 15.2921 39.4247 15.214 40.6497C15.1128 42.2372 15.1011 42.2598 14.3091 42.4085C13.8677 42.4913 13.1811 42.5219 12.7835 42.4766C12.0867 42.3971 12.0577 42.3409 11.985 40.9352C11.9435 40.1329 11.7346 39.2096 11.5213 38.8836C11.0249 38.1262 10.0758 38.11 9.5951 38.8506ZM19.9489 38.6782C19.4093 39.0562 19.3961 39.1823 19.3961 44.0067C19.3961 48.1674 19.4578 49.0099 19.7867 49.3391C20.0956 49.6477 20.7625 49.7298 22.9642 49.7298C25.939 49.7298 26.8561 49.4369 26.8561 48.4864C26.8561 47.6305 25.9047 47.2431 23.8032 47.2431H21.8554L21.9313 46.0619L22.0071 44.8808L23.5588 44.8069C25.2191 44.7276 25.7908 44.2842 25.4434 43.3445C25.1871 42.6505 24.8628 42.5264 23.2977 42.5222L21.8527 42.5184L21.93 41.5859L22.0071 40.6534L23.4688 40.7325C25.3509 40.8344 26.3588 40.4373 26.3588 39.5938C26.3588 38.5487 25.7327 38.3077 22.9951 38.299C21.1306 38.2931 20.3619 38.3888 19.9489 38.6782ZM31.4901 38.8066L30.8348 39.3218V44.1144C30.8348 48.6148 30.8657 48.9346 31.3396 49.3635C31.7395 49.7253 31.9854 49.7711 32.5208 49.5833L33.1972 49.3461L33.3215 46.1186L33.4458 42.8914L34.1816 44.3213C34.5862 45.1078 35.006 45.7511 35.1141 45.7511C35.2223 45.7511 35.3108 46.0097 35.3108 46.3258C35.3108 46.6421 35.5346 47.1409 35.8082 47.4346C36.0817 47.728 36.3055 48.0697 36.3055 48.1935C36.3055 48.3174 36.6004 48.7137 36.961 49.0743C37.754 49.8673 38.9036 49.9536 39.2808 49.2489C39.433 48.9644 39.5382 46.7863 39.5382 43.9202C39.5382 39.8447 39.476 39.0105 39.1475 38.6817C38.6164 38.1508 37.9654 38.1909 37.4255 38.7874C37.0346 39.2193 36.9961 39.5817 37.1276 41.5874C37.2965 44.1562 37.0968 44.9228 36.5442 43.8287C36.353 43.4499 35.9084 42.6925 35.5563 42.1454C35.2044 41.5983 34.7533 40.8237 34.5541 40.4239C33.841 38.9933 33.7072 38.8172 33.1335 38.5559C32.3467 38.1976 32.2443 38.213 31.4901 38.8066ZM41.6904 38.7459C41.3371 39.1363 41.2789 39.8868 41.2789 44.0537C41.2789 50.0831 41.0434 49.7298 45.0601 49.7298C47.361 49.7298 47.9961 49.6525 48.2545 49.3411C48.5472 48.9885 48.5974 48.9885 48.7948 49.3411C48.9145 49.555 49.3215 49.7298 49.6995 49.7298C50.5385 49.7298 51.4765 48.7824 52.1198 47.2849L52.5826 46.2077L53.1463 46.9119C53.4561 47.2993 53.7103 47.7176 53.711 47.8414C53.7118 47.9652 54.0027 48.4472 54.3575 48.9124C55.0976 49.8827 56.0351 49.9568 56.607 49.0902C56.971 48.5382 56.9325 48.437 55.0926 45.12L54.3978 43.8672L54.9131 42.736C55.1965 42.1141 55.6016 41.4611 55.8135 41.2853C56.0256 41.1095 56.1989 40.7984 56.1989 40.594C56.1989 40.313 56.3655 40.264 56.8828 40.3936C57.259 40.4875 57.9302 40.6248 58.3748 40.6984L59.1829 40.8322V44.7999C59.1829 47.0596 59.2938 48.9748 59.4403 49.2489C59.6161 49.5774 59.9618 49.7298 60.5307 49.7298C61.9357 49.7298 62.0953 49.1986 62.0431 44.6943L61.9981 40.7777H62.712C63.1049 40.7777 63.8144 40.6156 64.2886 40.4174C65.2616 40.0109 65.4176 39.3554 64.6962 38.7026C64.3167 38.3592 63.6401 38.2911 60.6078 38.2911C58.4471 38.2911 56.9119 38.392 56.8201 38.5405C56.7172 38.7071 56.5115 38.7071 56.2002 38.5405C55.944 38.4032 55.5743 38.2911 55.3788 38.2911C54.885 38.2911 53.8391 39.3867 53.3509 40.4154C53.1264 40.8882 52.8561 41.2751 52.7499 41.2751C52.644 41.2751 52.3113 40.783 52.0109 40.1817C51.4708 39.1 50.5698 38.2911 49.9052 38.2911C49.7164 38.2911 49.3529 38.5221 49.0972 38.8046C48.6422 39.3076 48.6449 39.3419 49.2365 40.4831C49.5687 41.1239 50.1066 42.0609 50.4318 42.5654C50.8911 43.2783 50.9836 43.6618 50.8469 44.2854C50.7499 44.7268 50.5676 45.209 50.442 45.3572C50.3162 45.5054 49.8805 46.1639 49.4737 46.8204C48.7608 47.971 48.7143 48 48.1839 47.6285C47.8014 47.3607 47.044 47.2431 45.6994 47.2431H43.7655V46.1507C43.7655 44.882 43.9523 44.7564 45.8397 44.7564C46.8751 44.7564 47.1907 44.655 47.4508 44.2385C47.7211 43.8053 47.7116 43.6247 47.3929 43.1384C46.897 42.3817 46.2264 42.185 45.1531 42.4811C44.1109 42.7688 43.688 42.4135 43.8098 41.3522C43.8881 40.6686 43.9252 40.6529 45.5117 40.6303C47.4098 40.6034 48.2416 40.2441 48.2416 39.4511C48.2416 38.4395 47.8106 38.2911 44.8734 38.2911C42.5043 38.2911 42.0423 38.357 41.6904 38.7459ZM78.7193 38.8535C78.4249 39.3029 78.3552 40.3418 78.3731 44.0134C78.398 49.1141 78.5494 49.7298 79.7784 49.7298C80.8432 49.7298 81.0657 49.3155 81.0657 47.3324C81.0657 44.6505 81.6998 44.6028 82.9419 47.1914C83.8777 49.1414 84.458 49.7298 85.446 49.7298C85.8929 49.7298 86.3375 49.6017 86.4342 49.4453C86.7445 48.9432 86.5834 47.7598 86.109 47.0561C85.2627 45.8011 84.9295 44.982 85.1921 44.8024C86.5852 43.8503 87.0462 40.7419 85.9767 39.5143C85.1742 38.5934 84.045 38.2911 81.4074 38.2911C79.2726 38.2911 79.0585 38.3358 78.7193 38.8535ZM103.558 38.9458L102.851 39.6008L103.535 40.1891C103.969 40.5619 104.534 40.7777 105.076 40.7777H105.933V44.7383V48.6991L106.588 49.2143C107.358 49.8206 107.402 49.8248 108.032 49.3486C108.472 49.0154 108.518 48.6337 108.544 45.0108C108.56 42.8258 108.642 40.9695 108.726 40.8854C108.81 40.8014 109.474 40.6004 110.201 40.4391C111.737 40.0979 112.071 39.4849 111.118 38.7526C110.625 38.3734 110.037 38.3013 107.399 38.2965C104.354 38.2913 104.244 38.3097 103.558 38.9458ZM117.371 38.6596C116.401 39.0042 115.382 40.2958 115.382 41.1808C115.382 41.4989 115.649 42.2377 115.975 42.8225C116.453 43.679 116.938 44.0791 118.462 44.8765C119.959 45.6598 120.355 45.9831 120.355 46.422C120.355 47.5258 118.394 47.7959 117.335 46.8378C116.779 46.334 115.749 46.5568 115.371 47.2628C115.017 47.9242 115.549 48.7826 116.654 49.3339C117.611 49.8116 120.376 49.8638 121.154 49.419C122.653 48.5625 122.903 48.1291 122.92 46.3593C122.935 44.7413 122.903 44.649 122.09 43.9704C121.625 43.582 121.096 43.2644 120.914 43.2644C120.732 43.2644 120.343 43.0406 120.049 42.7671C119.756 42.4936 119.259 42.2698 118.945 42.2698C118.548 42.2698 118.329 42.0855 118.223 41.6623C117.921 40.4585 118.776 40.1998 120.619 40.9371C121.603 41.331 121.657 41.3271 122.161 40.8233C122.609 40.3754 122.641 40.2108 122.391 39.6622C122.231 39.3109 121.903 38.9622 121.663 38.8876C121.422 38.813 121.031 38.6484 120.794 38.5216C120.21 38.2098 118.436 38.2811 117.371 38.6596ZM126.288 38.6235C124.248 39.5304 123.018 42.6331 123.595 45.4139C124.239 48.5163 125.616 49.7298 128.491 49.7298C130.629 49.7298 131.624 49.1509 132.764 47.2431C133.195 46.5215 133.284 45.9637 133.285 43.9764C133.286 41.6856 133.25 41.5267 132.478 40.3722C132.027 39.6983 131.285 38.9766 130.799 38.7397C129.788 38.2461 127.282 38.1817 126.288 38.6235ZM134.821 38.8665C134.311 39.4101 134.281 39.6732 134.281 43.6036C134.281 48.2236 134.521 49.2325 135.624 49.2325C136.441 49.2325 136.679 48.8289 136.842 47.1638C136.92 46.3678 137.104 45.5721 137.25 45.3953C137.397 45.2185 138.087 45.0063 138.785 44.9238C140.696 44.6975 141.241 44.0383 140.255 43.1458C139.859 42.7875 139.523 42.7333 138.521 42.8663C137.351 43.0215 137.269 42.9959 137.126 42.4272C137.043 42.0949 137.012 41.5598 137.058 41.2383C137.135 40.6932 137.259 40.6502 138.881 40.6064C139.838 40.5808 140.957 40.5405 141.368 40.5171C141.778 40.4938 142.589 40.5574 143.171 40.6589L144.227 40.8431V44.3859C144.227 48.6085 144.553 49.8121 145.661 49.6833C146.772 49.554 146.969 48.7839 146.941 44.6682C146.927 42.6365 147.01 40.8877 147.126 40.782C147.492 40.4465 149.672 40.3219 149.919 40.6223C150.046 40.7763 150.195 41.6294 150.251 42.5184C150.307 43.4074 150.534 44.6383 150.756 45.2538C150.978 45.8692 151.3 46.8617 151.473 47.459C151.866 48.8197 152.567 49.7298 153.222 49.7298C153.919 49.7298 155.169 48.3278 155.169 47.5452C155.169 46.8766 155.507 45.6509 156.041 44.3834L156.355 43.6374L156.531 44.6321C156.957 47.0275 157.708 49.2431 158.181 49.4963C159.56 50.2341 160.477 49.2986 160.878 46.7458C161.039 45.72 161.273 44.4891 161.397 44.0104C161.522 43.5317 161.737 42.6925 161.876 42.1454C162.311 40.4331 162.205 38.8453 161.637 38.541C161.258 38.3388 160.994 38.3731 160.515 38.6872C159.86 39.1164 159.742 39.429 159.545 41.2751C159.479 41.8905 159.325 42.8976 159.203 43.5131C159.026 44.4046 158.943 44.5309 158.795 44.1348C158.693 43.8612 158.507 43.3803 158.381 43.0662C158.255 42.7522 158.153 42.2272 158.153 41.8997C158.153 41.5722 158.041 41.2353 157.904 41.1507C157.767 41.0662 157.655 40.7519 157.654 40.4522C157.653 39.6523 156.741 38.2911 156.206 38.2911C155.951 38.2911 155.569 38.487 155.356 38.7262C154.829 39.3198 154.174 40.9568 154.174 41.6824C154.174 42.4015 153.617 44.2591 153.401 44.2591C153.317 44.2591 153.117 43.5598 152.958 42.7049C152.417 39.796 152.164 38.9528 151.739 38.6298C151.216 38.2324 150.387 38.1993 150.025 38.5614C149.83 38.7561 149.707 38.7561 149.587 38.5614C149.344 38.1687 142.186 38.1943 141.79 38.5895C141.558 38.8215 141.426 38.8215 141.194 38.5895C140.997 38.393 139.949 38.2911 138.129 38.2911C135.558 38.2911 135.324 38.3318 134.821 38.8665ZM165.675 38.6292C165.367 38.7817 165.115 39.0266 165.115 39.1736C165.115 39.3208 164.892 39.9042 164.618 40.4704C164.345 41.0366 164.121 41.6521 164.121 41.8381C164.121 42.0241 163.897 42.6395 163.623 43.2057C163.35 43.772 163.126 44.3991 163.126 44.5995C163.126 44.7999 162.902 45.486 162.629 46.1241C161.982 47.6323 161.975 48.8826 162.611 49.2228C162.874 49.364 163.259 49.4145 163.466 49.3349C163.92 49.1608 164.618 48.1428 164.618 47.6554C164.618 46.5446 167.359 46.2708 168.153 47.3025C168.391 47.6116 168.588 48.0411 168.591 48.2567C168.597 48.6874 169.597 49.7298 170.004 49.7298C170.801 49.7298 171.453 47.7397 170.864 47.1063C170.605 46.8283 169.591 43.992 169.591 43.5467C169.591 43.3783 169.368 42.7773 169.094 42.2111C168.821 41.6449 168.597 41.0334 168.597 40.8521C168.597 40.0492 167.216 38.2756 166.626 38.3216C166.411 38.3383 165.983 38.4768 165.675 38.6292ZM172.121 38.8665C171.605 39.4158 171.581 39.658 171.581 44.1743C171.581 48.4432 171.625 48.947 172.036 49.3182C172.57 49.8017 173.348 49.8524 173.769 49.4314C173.943 49.2576 174.067 48.424 174.067 47.4343C174.067 45.3831 174.527 44.9616 175.474 46.1445C175.793 46.5436 176.055 46.9619 176.056 47.074C176.059 47.5987 177.636 49.4936 178.184 49.6311C179.611 49.9891 179.952 48.5648 178.834 46.9149C177.744 45.3055 177.735 45.1411 178.683 44.136C179.457 43.3154 179.538 43.0904 179.538 41.7739C179.538 40.5711 179.427 40.1859 178.894 39.5536C178.54 39.1328 178.043 38.7884 177.79 38.7884C177.537 38.7884 177.26 38.6765 177.176 38.5397C177.091 38.403 176.041 38.2911 174.842 38.2911C172.885 38.2911 172.607 38.35 172.121 38.8665ZM181.316 38.7516C180.915 39.1522 180.832 39.8142 180.676 43.8304C180.438 49.975 180.289 49.7298 184.253 49.7298C186.763 49.7298 187.227 49.6664 187.581 49.275C188.655 48.0883 187.715 47.2431 185.32 47.2431C183.566 47.2431 183.555 47.2391 183.394 46.5026C183.078 45.0663 183.361 44.7865 185.209 44.7052C186.838 44.6336 186.876 44.6167 186.955 43.9179C187.07 42.9165 186.701 42.6609 184.935 42.5184L183.393 42.3941V41.5237V40.6534H185.216C186.841 40.6534 187.092 40.5883 187.524 40.0564C188.007 39.462 188.007 39.4566 187.46 38.8752C186.953 38.3353 186.717 38.2911 184.344 38.2911C182.176 38.2911 181.705 38.3627 181.316 38.7516ZM193.728 38.6723C193.013 39.0647 191.975 40.686 191.973 41.4128C191.971 42.2877 193.328 44.1387 194.3 44.5878C194.797 44.8174 195.587 45.1817 196.055 45.3972C197.473 46.0505 197.494 47.1175 196.095 47.3799C195.527 47.4866 194.987 47.3707 194.239 46.9808C193.374 46.5299 193.075 46.4807 192.578 46.7075C191.64 47.1349 191.749 48.2912 192.803 49.0954C193.524 49.6452 193.884 49.7298 195.5 49.7298C198.547 49.7298 199.929 48.6598 199.929 46.3007C199.929 45.1976 199.828 44.9633 199.004 44.1631C198.495 43.6688 197.996 43.2644 197.896 43.2644C197.361 43.2644 194.458 41.6583 194.458 41.3626C194.458 40.6825 195.59 40.4249 197.098 40.7623C198.299 41.0314 198.548 41.0224 198.871 40.6987C199.482 40.0882 199.073 39.102 198.029 38.6656C196.943 38.212 194.56 38.2155 193.728 38.6723ZM199.843 38.7459C198.93 39.755 199.608 40.5291 201.405 40.5291H202.416V44.5165C202.416 48.8652 202.642 49.7298 203.782 49.7298C204.797 49.7298 204.928 49.2327 205.026 44.9899C205.077 42.7728 205.23 40.8476 205.366 40.7116C205.502 40.5756 206.041 40.4204 206.563 40.3669C207.907 40.2292 208.135 40.1121 208.135 39.56C208.135 38.4537 207.58 38.2911 203.804 38.2911C200.681 38.2911 200.205 38.3458 199.843 38.7459ZM210.942 38.4524C210.602 38.5907 209.701 40.4279 208.888 42.6428C208.586 43.4634 208.238 44.3919 208.113 44.706C207.988 45.02 207.886 45.4786 207.886 45.7245C207.886 45.9707 207.727 46.4969 207.533 46.894C207.068 47.8444 207.005 48.2515 207.225 48.8987C207.672 50.2107 208.99 49.6935 209.847 47.8703L210.387 46.7214L211.801 46.7958C213.149 46.8666 213.221 46.9044 213.367 47.6161C213.61 48.8045 214.067 49.4627 214.774 49.64C215.596 49.8464 216.466 48.9323 216.213 48.1276C216.125 47.8464 215.995 47.3364 215.925 46.9944C215.855 46.6525 215.584 45.8983 215.323 45.3187C215.062 44.7388 214.849 44.091 214.849 43.8789C214.849 43.6668 214.625 43.0545 214.352 42.5184C214.078 41.9823 213.854 41.3206 213.854 41.048C213.854 39.3201 212.274 37.9118 210.942 38.4524ZM217.25 38.7459C216.896 39.137 216.838 39.894 216.838 44.1566C216.838 48.949 216.856 49.1238 217.37 49.4446C217.83 49.7318 217.988 49.7114 218.551 49.2924C219.121 48.8679 219.21 48.6048 219.274 47.1553C219.326 46.003 219.446 45.5024 219.671 45.5024C220.111 45.5024 220.817 46.3181 220.817 46.8276C220.817 47.0561 220.91 47.2431 221.024 47.2431C221.137 47.2431 221.384 47.551 221.572 47.9269C222.148 49.081 222.859 49.7298 223.546 49.7298C224.804 49.7298 225.165 48.7115 224.327 47.5301C224.07 47.167 223.619 46.4412 223.326 45.917L222.792 44.9638L223.426 44.4652C224.875 43.3253 225.197 41.4029 224.202 39.8273C223.707 39.0428 223.394 38.8374 222.318 38.589C220.28 38.1185 217.747 38.1971 217.25 38.7459ZM225.207 38.7459C224.981 38.996 224.796 39.3934 224.796 39.6289C224.796 40.0971 226.154 40.7777 227.088 40.7777H227.655V44.8701C227.655 48.6712 227.691 48.989 228.153 49.3381C228.818 49.8412 229.359 49.8233 229.848 49.2822C230.182 48.9139 230.266 48.1085 230.322 44.744L230.391 40.6534L231.51 40.5226C232.125 40.4507 232.769 40.3043 232.94 40.1971C233.391 39.9141 233.32 39.1773 232.796 38.7026C232.42 38.3624 231.758 38.2911 228.98 38.2911C226.04 38.2911 225.567 38.348 225.207 38.7459ZM245.597 38.6556C245.186 38.9669 245.124 39.5041 245.018 43.6939C244.908 48.0396 244.934 48.4265 245.374 48.9699C245.737 49.4177 245.998 49.5184 246.483 49.3971C247.293 49.1937 247.417 48.6961 247.422 45.6268L247.427 43.1401L248.005 44.2591C248.847 45.8866 250.118 47.9928 250.819 48.9216C251.523 49.8546 252.567 50.0078 253.23 49.275C253.582 48.8853 253.641 48.148 253.637 44.1151C253.635 41.5275 253.551 39.287 253.451 39.1365C253.018 38.4885 252.271 38.3209 251.713 38.7464C251.22 39.1224 251.162 39.418 251.099 41.8968C251.051 43.7993 250.961 44.4807 250.802 44.1348C250.676 43.8612 250.257 43.1697 249.869 42.598C249.482 42.0263 249.165 41.4869 249.165 41.3994C249.165 41.1378 247.606 38.9366 247.189 38.6099C246.682 38.212 246.163 38.2267 245.597 38.6556ZM264.97 38.8439C264.526 39.477 264.488 39.8589 264.809 40.4704C264.934 40.7079 265.218 42.0211 265.441 43.3888C266.265 48.4305 266.469 49.0263 267.523 49.463C268.695 49.9486 269.319 49.3722 269.983 47.1906C270.287 46.1937 270.606 45.0424 270.694 44.6321L270.853 43.8861L271.108 44.5078C271.248 44.8497 271.453 45.577 271.565 46.1241C272.205 49.2685 272.487 49.7298 273.773 49.7298C274.344 49.7298 274.85 49.5622 275.088 49.2946C275.586 48.7336 276.018 47.1444 276.02 45.863C276.021 45.3092 276.122 44.7497 276.245 44.6197C276.476 44.3747 276.665 43.2537 276.923 40.5895C277.027 39.519 276.978 38.918 276.766 38.6623C275.924 37.6475 274.529 38.8342 274.529 40.5659C274.529 41.1838 274.445 41.7732 274.343 41.8756C274.24 41.9781 274.042 42.4677 273.902 42.964L273.649 43.866L273.343 42.8193C273.175 42.2434 272.914 41.2967 272.763 40.7156C272.298 38.9279 272.083 38.5594 271.407 38.3895C270.928 38.2694 270.618 38.3624 270.241 38.7394C269.679 39.3004 269.068 40.8337 269.062 41.6956C269.06 41.9952 268.947 42.3095 268.81 42.3941C268.673 42.4786 268.561 42.8703 268.561 43.2644C268.561 43.6586 268.462 44.0425 268.34 44.1176C268.13 44.2474 267.985 43.7729 267.679 41.9589C267.383 40.2018 266.958 38.8983 266.588 38.6099C265.994 38.1468 265.397 38.2329 264.97 38.8439ZM81.3417 40.6012C81.1898 40.7531 81.0657 41.4143 81.0657 42.0708V43.2644H82.0301C83.1879 43.2644 83.6136 42.8278 83.5071 41.7498C83.441 41.0794 83.2806 40.8981 82.5229 40.637C81.8597 40.4087 81.5439 40.399 81.3417 40.6012ZM174.233 40.4463C174.026 40.6534 174.016 42.3429 174.218 42.871C174.415 43.384 175.77 43.3878 176.499 42.8772C176.856 42.6271 177.052 42.2327 177.052 41.7617C177.052 41.1595 176.895 40.968 176.151 40.6566C175.187 40.2538 174.501 40.1785 174.233 40.4463ZM219.325 41.7724C219.325 43.2346 219.339 43.2644 220.009 43.2634C220.948 43.2622 222.309 42.3906 222.309 41.7908C222.309 41.2398 222.055 41.0369 220.817 40.597C219.386 40.0889 219.325 40.1372 219.325 41.7724ZM258.369 40.9889C257.523 41.6951 257.52 41.7035 257.52 43.8553C257.52 45.856 257.568 46.0612 258.177 46.6697C259.352 47.8449 261.369 47.2501 261.713 45.6268C262.1 43.7986 262.139 43.1841 261.9 42.6823C261.759 42.3869 261.581 41.9502 261.505 41.7117C261.366 41.2758 259.957 40.2831 259.475 40.2814C259.333 40.2809 258.836 40.5992 258.369 40.9889ZM127.438 40.7641C127.162 40.876 126.785 41.2885 126.601 41.6809C126.416 42.0731 126.166 42.5883 126.046 42.8258C125.664 43.5758 125.806 44.7067 126.419 45.8066C127.447 47.6527 128.827 47.8819 130.115 46.421C130.725 45.7292 130.799 45.4567 130.791 43.8955C130.783 42.0803 130.615 41.6782 129.563 40.9528C128.903 40.4977 128.24 40.4391 127.438 40.7641ZM99.1232 42.6567C98.7937 43.5151 98.9534 44.2591 99.4671 44.2591C99.8493 44.2591 99.9645 44.0932 99.9645 43.5434C99.9645 42.6773 99.36 42.04 99.1232 42.6567ZM166.047 43.2557L165.653 44.2591H166.41C167.13 44.2591 167.159 44.2198 167.007 43.4586C166.759 42.2208 166.477 42.1611 166.047 43.2557ZM211.368 42.9954C211.368 43.2577 211.3 43.6494 211.217 43.8657C211.103 44.1624 211.225 44.2591 211.714 44.2591C212.436 44.2591 212.495 44.0768 212.074 43.1518C211.733 42.4033 211.368 42.3225 211.368 42.9954ZM277.312 47.2528C276.634 47.8839 276.617 48.5852 277.265 49.2325C277.821 49.7892 279.229 49.9041 279.702 49.4314C279.866 49.2673 280 48.7702 280 48.3266C280 46.9019 278.382 46.2556 277.312 47.2528Z" fill="white"/>
</svg>
