<svg width="119" height="127" viewBox="0 0 119 127" fill="none" xmlns="http://www.w3.org/2000/svg">
<path fill-rule="evenodd" clip-rule="evenodd" d="M46.2558 0.214857C43.3016 0.638539 36.1871 2.52903 34.1511 3.43127C19.2851 10.0183 8.32084 23.6614 2.63333 42.6498C0.76462 48.8894 0.0327749 55.2065 0.00149679 65.3721C-0.0297813 75.5418 0.417368 79.3906 2.45747 86.5212C4.22372 92.694 7.27366 99.3743 10.4369 104C13.747 108.84 18.2073 113.618 22.6376 117.07C24.6646 118.649 30.6052 121.978 32.9619 122.855C33.9542 123.224 35.5558 123.86 36.5212 124.268C37.4867 124.677 39.3305 125.239 40.6187 125.517C45.0187 126.468 45.709 125.999 42.5056 124.236C36.098 120.711 29.2143 113.555 23.8638 104.859C22.4343 102.536 19.6221 96.7931 18.9921 94.911C16.9893 88.9284 16.2907 86.3622 15.4714 81.9768C13.3786 70.7751 14.0144 55.7815 17.0059 45.796C18.0126 42.4356 20.345 36.8316 21.5208 34.9484C25.8059 28.0852 29.2711 24.1976 34.3276 20.5806C41.0473 15.774 45.3825 14.3519 53.1178 14.4159C58.0301 14.4565 58.0894 14.4666 61.5757 15.8359C63.5066 16.5944 65.661 17.5652 66.3631 17.9934C70.3571 20.4282 71.2977 21.0543 72.7464 22.2418C75.0192 24.1054 78.3283 28.3694 81.2588 33.2114C82.7203 35.6259 85.0342 40.6433 85.0342 41.3977C85.0342 41.6109 85.1609 42.0587 85.3161 42.3926C85.4709 42.7264 85.9238 43.9433 86.3221 45.0969C87.1663 47.5407 87.4896 48.0682 88.1445 48.0682C88.4075 48.0682 89.7904 46.8416 91.2171 45.3419C92.6438 43.8426 94.8457 41.6308 96.1099 40.4269C97.3741 39.223 98.4893 37.9586 98.5885 37.6167C98.8423 36.7403 96.5146 31.0737 94.1975 26.9275C90.8941 21.0165 87.1398 16.5112 80.3068 10.2574C79.9008 9.88579 78.8236 9.08807 77.913 8.4847C77.0021 7.88099 75.8723 7.04271 75.4019 6.62148C73.2322 4.67995 63.9834 1.17199 59.1988 0.475639C55.7697 -0.0232014 48.8828 -0.161983 46.2558 0.214857ZM75.9253 0.549049C75.6668 1.00734 75.3527 0.762637 79.0314 2.96739C80.7329 3.9871 82.795 5.42838 83.6143 6.16983C84.4336 6.91127 85.2056 7.51778 85.3298 7.51778C85.8408 7.51778 93.007 15.5859 94.7997 18.1798C98.2684 23.1975 101.364 28.913 102.882 33.0981C103.277 34.1895 103.84 35.191 104.132 35.3235C104.424 35.4563 107.496 35.6469 110.96 35.7468C116.309 35.9013 117.284 35.8514 117.436 35.4151C117.535 35.133 116.908 33.2484 116.042 31.2279C111.64 20.9536 101.864 10.2969 92.2154 5.2529C89.3506 3.75533 83.8738 1.57504 82.9763 1.57504C82.7162 1.57504 81.8879 1.35621 81.1357 1.08879C79.2012 0.401179 76.1851 0.0886616 75.9253 0.549049ZM48.1707 20.4362C38.9903 22.7015 32.1528 27.9451 26.7271 36.8819C23.3414 42.4586 20.7331 50.1695 19.7511 57.5067C19.2123 61.5331 19.1526 71.9094 19.6448 76.0159C20.2186 80.805 22.2316 89.3136 23.6755 93.054C25.233 97.0895 28.7924 103.347 32.0628 107.799C34.3975 110.977 35.2848 111.98 37.4787 113.92C42.909 118.72 47.0368 121.228 53.2774 123.515C59.9176 125.95 61.2543 126.162 69.8739 126.153C77.0912 126.146 77.7369 126.091 81.0447 125.205C85.3055 124.065 85.9052 123.871 88.5451 122.779C92.0214 121.342 96.7428 118.643 98.9865 116.81C105.605 111.402 108.21 108.527 112.044 102.396C114.776 98.0302 118.227 90.5193 118.227 88.9431C118.227 88.109 117.889 87.5308 116.711 86.3492C108.67 78.2839 107.262 77.067 106.695 77.6889C106.509 77.8924 106.105 79.4518 105.797 81.1539C105.167 84.6412 102.715 90.3994 99.938 94.911C98.1771 97.7719 94.148 102.532 92.375 103.846C91.7606 104.301 90.6464 105.148 89.8993 105.728C87.9032 107.277 82.7146 109.862 79.9468 110.686C76.1299 111.822 75.4644 111.959 72.5868 112.204C65.9757 112.768 58.7664 110.822 52.639 106.818C51.7613 106.245 50.8278 105.661 50.5645 105.522C48.2397 104.289 42.7357 98.1935 40.5469 94.4265C37.7622 89.6345 35.2066 82.7766 34.3851 77.892C33.4968 72.6079 33.5913 61.0486 34.5629 56.1905C36.9103 44.4515 42.5876 34.7009 50.2313 29.2801C51.7157 28.2275 53.1519 27.2805 53.4229 27.1753C53.6939 27.0704 55.0673 26.4045 56.4744 25.6952C57.8816 24.9859 59.6051 24.2882 60.3044 24.1445C61.0037 24.0012 62.0601 23.6621 62.6519 23.3912C64.0686 22.7434 63.6454 22.1757 61.1914 21.4308C55.1279 19.591 52.431 19.3851 48.1707 20.4362ZM106.556 40.9873L103.342 41.0998L99.8534 44.6172C97.9346 46.5521 95.8261 48.6181 95.1677 49.2089C94.5096 49.7993 93.9708 50.4785 93.9708 50.7176C93.9708 51.4178 96.273 51.6503 100.537 51.3808C104.193 51.1501 104.613 51.0511 105.738 50.1587C107.119 49.0631 114.078 41.4207 114.078 41.0002C114.078 40.8499 113.109 40.7604 111.924 40.801C110.739 40.8415 108.323 40.9254 106.556 40.9873ZM87.2403 76.0648C86.8739 76.4661 86.3648 77.3705 86.1092 78.0749C85.5545 79.6018 85.386 80.0216 84.0525 83.2003C83.4879 84.5461 82.6159 86.2206 82.1152 86.9211C81.6141 87.6217 81.203 88.3296 81.2014 88.4942C81.1998 88.6589 80.1577 89.9733 78.8852 91.4152C73.6241 97.3779 67.4109 101.263 60.6182 102.838C58.1577 103.408 57.6713 103.705 58.2908 104.258C58.9735 104.868 62.9864 105.995 66.044 106.436C68.4163 106.778 69.5832 106.756 72.7464 106.313C78.7863 105.466 82.8926 103.875 87.4538 100.614C92.9371 96.6945 97.0613 91.0405 99.7733 83.7246C101.728 78.4496 102.302 76.3235 101.908 75.8037C101.631 75.4384 100.045 75.3349 94.7298 75.3349C88.2367 75.3349 87.8745 75.3702 87.2403 76.0648Z" fill="white"/>
</svg>
